<svg width="162" height="57" viewBox="0 0 162 57" fill="none" xmlns="http://www.w3.org/2000/svg">
<g filter="url(#filter0_d_120_3533)">
<path d="M147.513 13.3752C148.198 13.3956 148.857 13.4839 148.857 13.4839C151.016 13.689 152.857 14.585 154.412 16.0781C155.739 17.3525 156.663 18.8693 157.038 20.6852C157.61 23.4584 156.722 25.7285 154.582 27.5218C152.98 28.8642 151.096 29.5903 149.036 29.7976C147.768 29.9256 146.487 29.9415 145.211 29.9483C141.997 29.9653 138.785 29.9483 135.571 29.946C135.106 29.946 135.106 29.9505 135.106 30.4195C135.106 32.0009 135.1 33.5812 135.114 35.1626C135.116 35.4549 135.023 35.5263 134.743 35.5251C132.751 35.5115 130.76 35.5138 128.767 35.5104C128.417 35.5104 128.403 35.4957 128.403 35.1423C128.4 31.6509 128.403 28.1596 128.392 24.6682C128.392 24.3861 128.492 24.3261 128.753 24.3261C135.152 24.3318 141.55 24.3069 147.95 24.3488C149.511 24.359 150.223 23.2227 150.376 22.21C150.431 21.8452 150.423 21.4533 150.353 21.0919C150.149 20.0543 149.43 19.438 148.335 19.31C148.056 19.2771 147.773 19.2613 147.491 19.2613C137.419 19.2556 127.346 19.2534 117.273 19.2432C116.999 19.2432 116.853 19.3326 116.729 19.5739C114.439 24.0157 112.141 28.453 109.844 32.8913C109.506 33.545 109.113 34.1578 108.586 34.6823C107.266 35.9975 104.648 36.2955 102.982 34.7843C102.806 34.6246 102.893 34.5124 102.968 34.3719C104.33 31.8288 105.69 29.2867 107.05 26.7435C109.374 22.4037 111.697 18.0639 114.022 13.7252C114.088 13.6029 114.172 13.4918 114.248 13.3752C132.576 13.3344 146.052 13.3321 147.513 13.3752Z" fill="white"/>
<path d="M83.7297 13.4684C83.7432 13.4967 83.7557 13.525 83.7692 13.5522C79.2832 16.9948 74.7982 20.4375 70.2625 23.9186C75.0567 27.7702 79.8137 31.5923 84.5696 35.4133C84.556 35.4428 84.5425 35.4722 84.5278 35.5017C84.4206 35.5085 84.3133 35.5198 84.2061 35.5198C81.1898 35.5175 78.1746 35.513 75.1583 35.5141C74.8953 35.5141 74.6899 35.4258 74.5002 35.2513C71.949 32.9007 69.3956 30.5524 66.8432 28.2041C66.0406 27.4655 65.2391 26.7257 64.4365 25.9883C64.3688 25.926 64.2965 25.8705 64.1769 25.7696C64.1769 25.9192 64.1769 26.0166 64.1769 26.114C64.178 29.1058 64.1803 32.0987 64.1814 35.0905C64.1814 35.3706 64.0392 35.5111 63.7547 35.5119C61.8097 35.5119 59.8647 35.5119 57.9208 35.5119C57.5291 35.5119 57.5234 35.5062 57.5234 35.1188C57.5234 28.0047 57.5246 20.8917 57.5246 13.7776C57.5246 13.6179 57.5031 13.4514 57.6973 13.3766C59.8568 13.3732 62.0163 13.371 64.1758 13.3676C64.1758 13.5329 64.1758 13.6757 64.1769 13.789C64.1814 17.6349 64.1791 19.1189 64.1803 21.8852C64.1803 21.9906 64.1938 22.097 64.2051 22.2692C64.3462 22.1605 64.4365 22.0982 64.5178 22.0268C67.3636 19.5448 70.2061 17.0594 73.0542 14.5797C73.5271 14.1685 74.0171 13.7776 74.5002 13.3766C77.5763 13.4072 80.6536 13.4389 83.7297 13.4695V13.4684Z" fill="white"/>
<path d="M96.0035 22.3029C95.9426 22.4604 95.8952 22.5589 95.8658 22.662C94.6997 26.7923 93.5347 30.9236 92.3698 35.0539C92.2433 35.5014 92.2332 35.5104 91.7726 35.5104C89.884 35.5138 87.9955 35.5161 86.1069 35.5195C85.9974 35.5195 85.8879 35.5195 85.7344 35.5195C85.7671 35.3767 85.784 35.2793 85.8123 35.1842C87.6692 28.9469 89.5307 22.7107 91.3786 16.4711C91.6891 15.4233 92.3404 14.6847 93.2695 14.1591C94.1217 13.6776 95.0158 13.3661 96.0126 13.5202C97.0522 13.681 97.9226 14.1568 98.5254 15.0279C98.995 15.7054 99.4296 16.4122 99.8269 17.1361C101.702 20.5538 103.557 23.9829 105.424 27.4051C105.487 27.5207 105.522 27.6249 105.522 27.7325C105.522 27.8696 105.466 27.9726 105.447 28.0066C105.329 28.2321 104.106 30.6098 102.422 33.8792C100.282 30.0208 98.1427 26.1613 96.0024 22.3029H96.0035Z" fill="white"/>
<path d="M125.793 35.5161C125.63 35.5161 125.538 35.5161 125.446 35.5161C123.465 35.515 121.482 35.5139 119.501 35.5116C119.079 35.5116 119.059 35.4957 118.958 35.0698C117.985 30.9509 117.017 26.8308 116.037 22.713C115.943 22.3211 116.133 22.0129 116.265 21.6935C116.47 21.1905 116.728 20.7091 116.957 20.2163C117.056 20.0033 117.211 19.9138 117.447 19.915C118.649 19.9206 119.851 19.9218 121.053 19.915C121.296 19.9138 121.406 20.0271 121.468 20.2457C122.822 25.0308 124.179 29.8158 125.536 34.6008C125.617 34.8874 125.699 35.174 125.796 35.5173L125.793 35.5161Z" fill="white"/>
<path d="M4 35.4617C4.12079 35.4617 4.22238 35.4617 4.32398 35.4617C9.00532 35.4651 13.6878 35.4708 18.3691 35.4685C19.1492 35.4685 19.9292 35.4481 20.7081 35.4107C22.5877 35.3201 24.4311 34.9814 26.1819 34.304C32.8974 31.7042 37.1498 26.8965 38.8905 19.8764C38.9458 19.6533 38.9831 19.4267 39.0294 19.1922C38.9515 19.1797 38.9153 19.1695 38.8792 19.1673C37.6183 19.1242 36.3619 19.1503 35.1089 19.3179C34.8278 19.3553 34.7025 19.472 34.6336 19.7348C33.9992 22.1285 32.8512 24.2491 31.1771 26.065C28.1416 29.357 24.3983 31.1774 19.9078 31.2624C16.0922 31.3349 12.2745 31.2907 8.45783 31.3065C8.21739 31.3065 8.16094 31.2284 8.16094 30.9984C8.16659 26.6427 8.16546 22.2859 8.16659 17.9302C8.16659 17.8396 8.17562 17.749 8.18239 17.6402H8.54701C12.7678 17.6402 16.9897 17.6402 21.2105 17.6402C21.4626 17.6402 21.589 17.5103 21.5898 17.2505C21.5898 13.0081 21.5931 8.76461 21.583 4.52221C21.583 4.2356 21.6564 4.15857 21.9431 4.15857C26.2485 4.16764 30.554 4.16537 34.8605 4.16537H35.2014V12.0271C35.3516 12.0271 35.4633 12.0294 35.574 12.0271C36.7197 12.0022 37.8666 11.966 39.0124 11.9569C39.2822 11.9546 39.3635 11.8867 39.3624 11.6102C39.3545 7.8289 39.3579 4.04869 39.3579 0.267345C39.3579 0.177852 39.3579 0.0883598 39.3579 0H17.4311C17.4311 0.13254 17.4311 0.252618 17.4311 0.371564C17.4299 4.61397 17.4288 8.8575 17.4265 13.0999C17.4265 13.3529 17.2971 13.4798 17.0382 13.4805C12.8175 13.4805 8.59555 13.4805 4.37478 13.4805H4V35.4617ZM39.3522 35.447H52.7754C52.7754 35.3145 52.7754 35.2125 52.7754 35.1117C52.7754 28.0304 52.7754 20.9481 52.7754 13.8668C52.7754 13.61 52.6463 13.4813 52.3882 13.4805C47.5082 13.4805 42.6293 13.4805 37.7492 13.4805C36.4883 13.4805 35.2297 13.5462 33.9857 13.7615C30.5156 14.363 27.4022 15.77 24.6975 18.0333C21.3211 20.8597 19.0521 24.4009 18.0023 28.7033C17.921 29.0386 17.8566 29.3785 17.7844 29.7138C17.842 29.7353 17.8668 29.7512 17.8939 29.7535C19.2124 29.8463 20.5241 29.7535 21.8302 29.5722C21.9295 29.5586 22.0503 29.4351 22.0921 29.3343C22.1813 29.1191 22.2163 28.8812 22.2908 28.658C23.5935 24.7555 25.9663 21.7172 29.556 19.6782C31.9503 18.3188 34.523 17.6278 37.283 17.6368C40.9495 17.6493 44.616 17.6402 48.2837 17.6402H48.6494V18.0039C48.6494 22.304 48.6494 26.6031 48.6494 30.9033C48.6494 31.1691 48.5143 31.3024 48.2442 31.3031C44.0697 31.3031 39.8952 31.3031 35.7207 31.3031C35.3805 31.3031 35.2105 31.4689 35.2105 31.8005C35.2105 36.0157 35.2082 40.2309 35.2161 44.445C35.2161 44.7134 35.1484 44.7939 34.8741 44.7927C30.5585 44.7837 26.2429 44.7871 21.9273 44.7871H21.5694V36.9389C21.3595 36.9389 21.1822 36.9366 21.005 36.9389C19.9337 36.9559 18.8624 36.9831 17.7912 36.9842C17.5225 36.9842 17.4412 37.0511 17.4424 37.3263C17.4503 41.0794 17.448 44.8324 17.4424 48.5854C17.4424 48.8335 17.4943 48.9241 17.7675 48.9241C24.8566 48.9162 31.9458 48.9173 39.035 48.9173C39.1343 48.9173 39.2337 48.9083 39.3511 48.9026V35.4459L39.3522 35.447Z" fill="white"/>
<path d="M4 35.4617V13.4805H4.37478C8.59555 13.4805 12.8175 13.4805 17.0382 13.4805C17.2964 13.4805 17.4258 13.3537 17.4265 13.0999C17.4277 8.8575 17.4299 4.61397 17.4311 0.371564C17.4311 0.251485 17.4311 0.131407 17.4311 0H39.3579C39.3579 0.0883598 39.3579 0.177852 39.3579 0.267345C39.3579 4.04869 39.3545 7.8289 39.3624 11.6102C39.3624 11.8867 39.2822 11.9546 39.0124 11.9569C37.8666 11.966 36.7197 12.0022 35.574 12.0271C35.4633 12.0294 35.3516 12.0271 35.2014 12.0271V4.16537H34.8605C30.5551 4.16537 26.2485 4.16877 21.9431 4.15857C21.6564 4.15857 21.5818 4.2356 21.583 4.52221C21.592 8.76461 21.5898 13.0081 21.5898 17.2505C21.5898 17.5103 21.4633 17.6402 21.2105 17.6402C16.9897 17.6402 12.7678 17.6402 8.54701 17.6402H8.18239C8.17675 17.7501 8.16659 17.8396 8.16659 17.9302C8.16659 22.2859 8.16659 26.6427 8.16094 30.9984C8.16094 31.2272 8.21739 31.3077 8.45783 31.3065C12.2745 31.2907 16.0922 31.336 19.9078 31.2624C24.3983 31.1763 28.1416 29.357 31.1771 26.065C32.8512 24.2491 33.9992 22.1285 34.6336 19.7348C34.7036 19.472 34.8278 19.3553 35.1089 19.3179C36.3619 19.1503 37.6194 19.1242 38.8792 19.1673C38.9153 19.1684 38.9515 19.1786 39.0294 19.1922C38.9819 19.4267 38.9458 19.6544 38.8905 19.8764C37.1487 26.8954 32.8974 31.703 26.1819 34.304C24.4311 34.9814 22.5877 35.3201 20.7081 35.4107C19.9292 35.4481 19.1492 35.4685 18.3691 35.4685C13.6878 35.4708 9.00532 35.4651 4.32398 35.4617C4.22238 35.4617 4.12079 35.4617 4 35.4617Z" fill="white"/>
<path d="M39.354 35.447V48.9038C39.2366 48.9094 39.1373 48.9185 39.038 48.9185C31.9488 48.9185 24.8596 48.9185 17.7704 48.9253C17.4972 48.9253 17.4453 48.8347 17.4453 48.5866C17.4521 44.8335 17.4543 41.0805 17.4453 37.3275C17.4453 37.0522 17.5266 36.9865 17.7941 36.9854C18.8654 36.9854 19.9367 36.9571 21.008 36.9401C21.1852 36.9378 21.3624 36.9401 21.5724 36.9401V44.7882H21.9302C26.2458 44.7882 30.5614 44.786 34.877 44.7939C35.1525 44.7939 35.2202 44.7135 35.2191 44.4461C35.2112 40.2309 35.2134 36.0157 35.2134 31.8016C35.2134 31.4701 35.3835 31.3043 35.7237 31.3043C39.8982 31.3043 44.0726 31.3043 48.2471 31.3043C48.5166 31.3043 48.6516 31.171 48.6524 30.9044C48.6524 26.6042 48.6524 22.3052 48.6524 18.005V17.6414H48.2866C44.6201 17.6414 40.9536 17.6505 37.286 17.638C34.526 17.6289 31.9522 18.3188 29.559 19.6793C25.9704 21.7184 23.5975 24.7555 22.2937 28.6592C22.2192 28.8823 22.1854 29.1202 22.095 29.3355C22.0533 29.4363 21.9314 29.5598 21.8332 29.5734C20.5271 29.7546 19.2165 29.8486 17.8969 29.7546C17.8709 29.7523 17.8449 29.7365 17.7874 29.715C17.8596 29.3785 17.9239 29.0398 18.0052 28.7045C19.0539 24.4021 21.3229 20.8597 24.7004 18.0345C27.4052 15.7711 30.5174 14.3642 33.9886 13.7626C35.2326 13.5474 36.4902 13.4817 37.7522 13.4817C42.6322 13.4817 47.5111 13.4817 52.3911 13.4817C52.6485 13.4817 52.7776 13.6105 52.7783 13.868C52.7783 20.9492 52.7783 28.0316 52.7783 35.1128C52.7783 35.2137 52.7783 35.3156 52.7783 35.4482H39.3552L39.354 35.447Z" fill="white"/>
<path d="M64.7695 42.7851C64.5076 43.2802 64.0877 43.6823 63.512 43.9916C62.9352 44.302 62.1969 44.4572 61.2961 44.4572H59.3149V48.9057H57.5234V37.9423H61.2961C62.1348 37.9423 62.8448 38.0873 63.4262 38.3762C64.0076 38.6651 64.4422 39.057 64.7312 39.5509C65.019 40.0448 65.1635 40.5976 65.1635 41.2071C65.1635 41.7644 65.0326 42.2901 64.7707 42.784L64.7695 42.7851ZM62.82 42.5246C63.1553 42.2142 63.3235 41.7746 63.3235 41.2071C63.3235 40.0086 62.6473 39.4093 61.2961 39.4093H59.3149V42.9902H61.2961C61.9768 42.9902 62.4859 42.835 62.8211 42.5246H62.82Z" fill="white"/>
<path d="M77.6133 37.9426V48.906H75.8218V44.1108H70.6821V48.906H68.8906V37.9426H70.6821V42.6438H75.8218V37.9426H77.6133Z" fill="white"/>
<path d="M88.5662 46.6664H83.9921L83.2064 48.906H81.3359L85.2497 37.9268H87.3245L91.2382 48.906H89.3519L88.5662 46.6664ZM88.0628 45.1994L86.286 40.104L84.4945 45.1994H88.0628Z" fill="white"/>
<path d="M100.624 48.906L98.1089 44.5208H96.7418V48.906H94.9492V37.9426H98.7218C99.5606 37.9426 100.271 38.0898 100.852 38.3844C101.433 38.6789 101.868 39.0731 102.157 39.567C102.445 40.0609 102.589 40.6137 102.589 41.2232C102.589 41.938 102.383 42.5871 101.968 43.1717C101.554 43.7551 100.917 44.1527 100.058 44.3622L102.762 48.9048H100.624V48.906ZM96.7418 43.0856H98.7218C99.3924 43.0856 99.8981 42.9179 100.239 42.5803C100.58 42.2439 100.75 41.7919 100.75 41.2232C100.75 40.6545 100.582 40.2116 100.247 39.8899C99.9116 39.5693 99.4037 39.4084 98.7218 39.4084H96.7418V43.0844V43.0856Z" fill="white"/>
<path d="M118.405 37.9426V48.906H116.613V41.3977L113.281 48.906H112.039L108.691 41.3977V48.906H106.898V37.9426H108.832L112.668 46.5395L116.488 37.9426H118.406H118.405Z" fill="white"/>
<path d="M129.359 46.6664H124.785L123.999 48.906H122.129L126.043 37.9268H128.117L132.031 48.906H130.145L129.359 46.6664ZM128.856 45.1994L127.08 40.104L125.287 45.1994H128.856Z" fill="white"/>
<path d="M135.891 40.5141C136.389 39.6622 137.065 38.9972 137.918 38.518C138.773 38.04 139.707 37.7998 140.724 37.7998C141.887 37.7998 142.922 38.0864 143.829 38.6596C144.735 39.2328 145.393 40.0451 145.802 41.0963H143.648C143.365 40.5186 142.972 40.087 142.47 39.8027C141.966 39.5183 141.385 39.3767 140.724 39.3767C140.001 39.3767 139.357 39.5398 138.791 39.8661C138.225 40.1923 137.782 40.6602 137.462 41.2697C137.143 41.8791 136.982 42.5894 136.982 43.3994C136.982 44.2093 137.141 44.9196 137.462 45.529C137.782 46.1396 138.224 46.6098 138.791 46.9405C139.356 47.2713 140.001 47.4378 140.724 47.4378C141.385 47.4378 141.966 47.2962 142.47 47.0119C142.973 46.7276 143.366 46.2971 143.648 45.7182H145.802C145.393 46.7695 144.735 47.5794 143.829 48.1481C142.922 48.7157 141.887 49 140.724 49C139.697 49 138.759 48.761 137.91 48.2818C137.061 47.8037 136.387 47.1376 135.891 46.2858C135.393 45.4339 135.145 44.4721 135.145 43.3994C135.145 42.3266 135.393 41.3648 135.891 40.5129V40.5141Z" fill="white"/>
<path d="M158 37.9426L154.384 44.9309V48.906H152.592V44.9309L148.961 37.9426H150.957L153.488 43.3212L156.019 37.9426H157.999H158Z" fill="white"/>
</g>
<defs>
<filter id="filter0_d_120_3533" x="0" y="0" width="162" height="57" filterUnits="userSpaceOnUse" color-interpolation-filters="sRGB">
<feFlood flood-opacity="0" result="BackgroundImageFix"/>
<feColorMatrix in="SourceAlpha" type="matrix" values="0 0 0 0 0 0 0 0 0 0 0 0 0 0 0 0 0 0 127 0" result="hardAlpha"/>
<feOffset dy="4"/>
<feGaussianBlur stdDeviation="2"/>
<feComposite in2="hardAlpha" operator="out"/>
<feColorMatrix type="matrix" values="0 0 0 0 0 0 0 0 0 0 0 0 0 0 0 0 0 0 0.25 0"/>
<feBlend mode="normal" in2="BackgroundImageFix" result="effect1_dropShadow_120_3533"/>
<feBlend mode="normal" in="SourceGraphic" in2="effect1_dropShadow_120_3533" result="shape"/>
</filter>
</defs>
</svg>
