<svg width="103" height="33" viewBox="0 0 103 33" fill="none" xmlns="http://www.w3.org/2000/svg">
<path d="M95.986 8.91442C96.4442 8.92801 96.8852 8.9869 96.8852 8.9869C98.3288 9.12356 99.5602 9.72077 100.601 10.7159C101.488 11.5653 102.106 12.5762 102.357 13.7865C102.74 15.6348 102.145 17.1478 100.714 18.343C99.6425 19.2377 98.3824 19.7216 97.0045 19.8598C96.1566 19.9451 95.2997 19.9557 94.4465 19.9602C92.297 19.9715 90.1482 19.9602 87.9987 19.9587C87.6876 19.9587 87.6876 19.9617 87.6876 20.2743C87.6876 21.3283 87.6839 22.3815 87.6929 23.4355C87.6944 23.6303 87.6325 23.6779 87.4453 23.6771C86.1127 23.6681 84.7808 23.6696 83.4483 23.6673C83.2142 23.6673 83.2044 23.6575 83.2044 23.4219C83.2029 21.095 83.2044 18.7681 83.1976 16.4411C83.1976 16.2531 83.264 16.2131 83.4384 16.2131C87.7186 16.2169 91.998 16.2003 96.2781 16.2282C97.3223 16.235 97.7987 15.4777 97.9007 14.8027C97.9377 14.5596 97.9324 14.2984 97.8856 14.0575C97.7489 13.366 97.268 12.9552 96.5356 12.8699C96.3491 12.848 96.1596 12.8375 95.9716 12.8375C89.2347 12.8337 82.4977 12.8322 75.7607 12.8254C75.5773 12.8254 75.4799 12.885 75.3968 13.0458C73.8649 16.0062 72.3285 18.9636 70.792 21.9217C70.5655 22.3574 70.3028 22.7658 69.9502 23.1154C69.0676 23.992 67.3167 24.1905 66.2023 23.1834C66.0845 23.0769 66.1427 23.0022 66.1932 22.9085C67.1038 21.2135 68.0136 19.5193 68.9234 17.8243C70.4772 14.9319 72.031 12.0394 73.5863 9.14772C73.6301 9.06618 73.6867 8.99218 73.7373 8.91442C85.9957 8.88724 95.009 8.88573 95.986 8.91442Z" fill="#3699D1"/>
<path d="M53.3256 8.97653C53.3347 8.9954 53.343 9.01428 53.352 9.0324C50.3516 11.3269 47.352 13.6214 44.3183 15.9415C47.5249 18.5085 50.7065 21.0559 53.8873 23.6026C53.8783 23.6222 53.8692 23.6419 53.8594 23.6615C53.7877 23.666 53.7159 23.6736 53.6442 23.6736C51.6268 23.672 49.6102 23.669 47.5928 23.6698C47.4169 23.6698 47.2795 23.6109 47.1526 23.4946C45.4463 21.928 43.7385 20.3628 42.0314 18.7977C41.4946 18.3054 40.9585 17.8124 40.4217 17.3209C40.3764 17.2794 40.3281 17.2424 40.2481 17.1752C40.2481 17.2748 40.2481 17.3398 40.2481 17.4047C40.2488 19.3987 40.2503 21.3934 40.2511 23.3874C40.2511 23.5742 40.156 23.6678 39.9657 23.6683C38.6648 23.6683 37.3639 23.6683 36.0638 23.6683C35.8018 23.6683 35.798 23.6645 35.798 23.4063C35.798 18.6648 35.7988 13.9241 35.7988 9.18265C35.7988 9.07619 35.7844 8.9652 35.9143 8.91537C37.3586 8.91311 38.803 8.9116 40.2473 8.90933C40.2473 9.01956 40.2473 9.1147 40.2481 9.1902C40.2511 11.7535 40.2496 12.7425 40.2503 14.5863C40.2503 14.6565 40.2594 14.7274 40.2669 14.8422C40.3613 14.7697 40.4217 14.7282 40.4761 14.6806C42.3795 13.0264 44.2806 11.3699 46.1855 9.71719C46.5018 9.44312 46.8295 9.18265 47.1526 8.91537C49.21 8.93576 51.2682 8.9569 53.3256 8.97728V8.97653Z" fill="#3699D1"/>
<path d="M61.5356 14.8647C61.4949 14.9696 61.4631 15.0353 61.4435 15.104C60.6636 17.8568 59.8844 20.6103 59.1053 23.3631C59.0207 23.6613 59.0139 23.6673 58.7058 23.6673C57.4427 23.6696 56.1796 23.6711 54.9164 23.6734C54.8432 23.6734 54.77 23.6734 54.6673 23.6734C54.6892 23.5782 54.7005 23.5133 54.7194 23.4499C55.9614 19.2928 57.2064 15.1365 58.4423 10.9779C58.65 10.2795 59.0856 9.78722 59.707 9.4369C60.277 9.11602 60.875 8.90839 61.5417 9.01107C62.237 9.11828 62.8191 9.43539 63.2223 10.016C63.5364 10.4675 63.8271 10.9386 64.0928 11.4211C65.3469 13.6989 66.5874 15.9843 67.8362 18.2652C67.8785 18.3422 67.9019 18.4117 67.9019 18.4834C67.9019 18.5748 67.8641 18.6435 67.852 18.6661C67.7728 18.8164 66.9551 20.4012 65.8286 22.5801C64.3971 20.0086 62.9664 17.4362 61.5349 14.8647H61.5356Z" fill="#3699D1"/>
<path d="M81.4596 23.6711C81.3501 23.6711 81.289 23.6711 81.2271 23.6711C79.902 23.6704 78.5762 23.6696 77.2512 23.6681C76.9688 23.6681 76.9552 23.6575 76.888 23.3736C76.2372 20.6284 75.5894 17.8824 74.9341 15.138C74.8714 14.8768 74.9982 14.6714 75.0866 14.4585C75.224 14.1233 75.3961 13.8024 75.5494 13.4739C75.6158 13.332 75.7193 13.2724 75.8771 13.2731C76.6812 13.2769 77.4852 13.2776 78.2893 13.2731C78.4517 13.2724 78.5249 13.3479 78.5664 13.4936C79.4724 16.6827 80.38 19.8719 81.2875 23.0611C81.3418 23.2521 81.3962 23.4431 81.4611 23.6719L81.4596 23.6711Z" fill="#3699D1"/>
<path d="M0 23.6348C0.0807861 23.6348 0.148737 23.6348 0.216688 23.6348C3.34772 23.6371 6.4795 23.6409 9.61053 23.6394C10.1322 23.6394 10.654 23.6258 11.1749 23.6009C12.432 23.5405 13.6649 23.3147 14.836 22.8632C19.3275 21.1305 22.1716 17.9262 23.3359 13.2474C23.3729 13.0987 23.3978 12.9477 23.4287 12.7914C23.3766 12.7831 23.3525 12.7763 23.3283 12.7748C22.485 12.7461 21.6446 12.7634 20.8066 12.8752C20.6186 12.9001 20.5348 12.9779 20.4887 13.153C20.0644 14.7484 19.2966 16.1618 18.1769 17.372C16.1467 19.5661 13.643 20.7794 10.6396 20.836C8.08767 20.8843 5.53423 20.8549 2.98154 20.8655C2.82072 20.8655 2.78297 20.8134 2.78297 20.6601C2.78674 17.7571 2.78599 14.8533 2.78674 11.9503C2.78674 11.8899 2.79278 11.8295 2.79731 11.757H3.04118C5.86416 11.757 8.6879 11.757 11.5109 11.757C11.6795 11.757 11.7641 11.6704 11.7646 11.4973C11.7646 8.66978 11.7668 5.84151 11.76 3.014C11.76 2.82298 11.8091 2.77164 12.0009 2.77164C14.8805 2.77768 17.7601 2.77617 20.6405 2.77617H20.8685V8.01594C20.9689 8.01594 21.0436 8.01745 21.1176 8.01594C21.884 7.99933 22.6511 7.97517 23.4174 7.96913C23.5978 7.96762 23.6522 7.92232 23.6515 7.7381C23.6462 5.21788 23.6484 2.69841 23.6484 0.178182C23.6484 0.118537 23.6484 0.0588908 23.6484 0H8.98311C8.98311 0.0883362 8.98311 0.168367 8.98311 0.247643C8.98236 3.07516 8.9816 5.90343 8.98009 8.73094C8.98009 8.89956 8.89352 8.98412 8.72037 8.98462C5.89739 8.98462 3.07365 8.98462 0.250663 8.98462H0V23.6348ZM23.6447 23.625H32.6225C32.6225 23.5367 32.6225 23.4687 32.6225 23.4015C32.6225 18.682 32.6225 13.9617 32.6225 9.24208C32.6225 9.07095 32.5362 8.98513 32.3635 8.98462C29.0996 8.98462 25.8365 8.98462 22.5725 8.98462C21.7292 8.98462 20.8874 9.02841 20.0553 9.17187C17.7344 9.57278 15.6521 10.5105 13.8431 12.019C11.5849 13.9028 10.0673 16.2629 9.36515 19.1305C9.31079 19.3539 9.26775 19.5804 9.21943 19.8039C9.25794 19.8183 9.27455 19.8288 9.29267 19.8303C10.1745 19.8923 11.0518 19.8303 11.9254 19.7095C11.9918 19.7005 12.0726 19.6182 12.1006 19.551C12.1602 19.4075 12.1836 19.249 12.2334 19.1003C13.1047 16.4992 14.6917 14.4743 17.0927 13.1153C18.6941 12.2093 20.4147 11.7487 22.2607 11.7548C24.713 11.7631 27.1653 11.757 29.6183 11.757H29.8629V11.9994C29.8629 14.8654 29.8629 17.7307 29.8629 20.5967C29.8629 20.7739 29.7726 20.8627 29.5919 20.8632C26.7998 20.8632 24.0078 20.8632 21.2158 20.8632C20.9883 20.8632 20.8745 20.9737 20.8745 21.1947C20.8745 24.004 20.873 26.8134 20.8783 29.6221C20.8783 29.801 20.833 29.8546 20.6495 29.8539C17.7631 29.8478 14.8767 29.8501 11.9903 29.8501H11.751V24.6194C11.6105 24.6194 11.492 24.6179 11.3735 24.6194C10.657 24.6307 9.94047 24.6488 9.22396 24.6496C9.04427 24.6496 8.98991 24.6941 8.99066 24.8776C8.99595 27.3789 8.99444 29.8803 8.99066 32.3816C8.99066 32.547 9.02539 32.6074 9.20811 32.6074C13.9496 32.6021 18.691 32.6029 23.4325 32.6029C23.4989 32.6029 23.5654 32.5968 23.6439 32.593V23.6243L23.6447 23.625Z" fill="white"/>
<path d="M0 23.6348V8.98462H0.250663C3.07365 8.98462 5.89739 8.98462 8.72037 8.98462C8.89301 8.98462 8.97959 8.90006 8.98009 8.73094C8.98085 5.90343 8.98236 3.07516 8.98311 0.247643C8.98311 0.167612 8.98311 0.0875812 8.98311 0H23.6484C23.6484 0.0588908 23.6484 0.118537 23.6484 0.178182C23.6484 2.69841 23.6462 5.21788 23.6515 7.7381C23.6515 7.92232 23.5978 7.96762 23.4174 7.96913C22.6511 7.97517 21.884 7.99933 21.1176 8.01594C21.0436 8.01745 20.9689 8.01594 20.8685 8.01594V2.77617H20.6405C17.7609 2.77617 14.8805 2.77844 12.0009 2.77164C11.8091 2.77164 11.7593 2.82298 11.76 3.014C11.7661 5.84151 11.7646 8.66978 11.7646 11.4973C11.7646 11.6704 11.68 11.757 11.5109 11.757C8.6879 11.757 5.86416 11.757 3.04118 11.757H2.79731C2.79354 11.8303 2.78674 11.8899 2.78674 11.9503C2.78674 14.8533 2.78674 17.7571 2.78297 20.6601C2.78297 20.8126 2.82072 20.8662 2.98154 20.8655C5.53423 20.8549 8.08767 20.8851 10.6396 20.836C13.643 20.7786 16.1467 19.5661 18.1769 17.372C19.2966 16.1618 20.0644 14.7484 20.4887 13.153C20.5355 12.9779 20.6186 12.9001 20.8066 12.8752C21.6446 12.7634 22.4857 12.7461 23.3283 12.7748C23.3525 12.7755 23.3766 12.7823 23.4287 12.7914C23.397 12.9477 23.3729 13.0994 23.3359 13.2474C22.1709 17.9255 19.3275 21.1297 14.836 22.8632C13.6649 23.3147 12.432 23.5405 11.1749 23.6009C10.654 23.6258 10.1322 23.6394 9.61053 23.6394C6.4795 23.6409 3.34772 23.6371 0.216688 23.6348C0.148737 23.6348 0.0807861 23.6348 0 23.6348Z" fill="#5CB347"/>
<path d="M23.6446 23.6251V32.5938C23.5661 32.5976 23.4997 32.6036 23.4332 32.6036C18.6918 32.6036 13.9503 32.6036 9.20884 32.6082C9.02612 32.6082 8.99139 32.5478 8.99139 32.3824C8.99592 29.8811 8.99743 27.3797 8.99139 24.8784C8.99139 24.6949 9.04576 24.6511 9.22469 24.6504C9.9412 24.6504 10.6577 24.6315 11.3742 24.6202C11.4927 24.6187 11.6113 24.6202 11.7517 24.6202V29.8509H11.9911C14.8775 29.8509 17.7639 29.8494 20.6503 29.8547C20.8345 29.8547 20.8798 29.801 20.879 29.6229C20.8737 26.8135 20.8753 24.0041 20.8753 21.1954C20.8753 20.9745 20.989 20.864 21.2165 20.864C24.0086 20.864 26.8006 20.864 29.5926 20.864C29.7728 20.864 29.8632 20.7752 29.8637 20.5975C29.8637 17.7315 29.8637 14.8662 29.8637 12.0002V11.7578H29.619C27.1668 11.7578 24.7145 11.7639 22.2615 11.7555C20.4155 11.7495 18.694 12.2093 17.0934 13.1161C14.6932 14.4751 13.1062 16.4993 12.2342 19.101C12.1843 19.2498 12.1617 19.4083 12.1013 19.5518C12.0733 19.619 11.9918 19.7013 11.9261 19.7103C11.0526 19.8311 10.176 19.8938 9.2934 19.8311C9.27603 19.8296 9.25867 19.8191 9.22016 19.8047C9.26848 19.5805 9.31152 19.3547 9.36588 19.1312C10.0673 16.2637 11.5849 13.9028 13.8438 12.0198C15.6529 10.5113 17.7344 9.57357 20.0561 9.17265C20.8881 9.0292 21.7292 8.98541 22.5733 8.98541C25.8372 8.98541 29.1003 8.98541 32.3642 8.98541C32.5364 8.98541 32.6227 9.07123 32.6232 9.24287C32.6232 13.9624 32.6232 18.6828 32.6232 23.4023C32.6232 23.4695 32.6232 23.5375 32.6232 23.6258H23.6454L23.6446 23.6251Z" fill="#3699D1"/>
<path d="M40.6452 28.5158C40.47 28.8458 40.1892 29.1138 39.8041 29.3199C39.4183 29.5268 38.9245 29.6302 38.322 29.6302H36.997V32.5951H35.7988V25.2881H38.322C38.883 25.2881 39.3579 25.3848 39.7467 25.5773C40.1355 25.7698 40.4262 26.0311 40.6195 26.3603C40.812 26.6894 40.9087 27.0579 40.9087 27.4641C40.9087 27.8356 40.8211 28.1859 40.6459 28.5151L40.6452 28.5158ZM39.3413 28.3422C39.5655 28.1353 39.678 27.8423 39.678 27.4641C39.678 26.6653 39.2258 26.2659 38.322 26.2659H36.997V28.6525H38.322C38.7773 28.6525 39.1178 28.549 39.342 28.3422H39.3413Z" fill="#5CB347"/>
<path d="M49.235 25.2883V32.5953H48.0368V29.3993H44.5992V32.5953H43.401V25.2883H44.5992V28.4216H48.0368V25.2883H49.235Z" fill="#5CB347"/>
<path d="M56.5623 31.1027H53.503L52.9776 32.5953H51.7265L54.3441 25.2778H55.7318L58.3495 32.5953H57.0878L56.5623 31.1027ZM56.2256 30.1249L55.0372 26.7289L53.839 30.1249H56.2256Z" fill="#5CB347"/>
<path d="M64.6266 32.5953L62.9445 29.6726H62.0301V32.5953H60.8312V25.2883H63.3544C63.9154 25.2883 64.3903 25.3865 64.7791 25.5828C65.168 25.7791 65.4586 26.0418 65.6519 26.371C65.8444 26.7002 65.9411 27.0686 65.9411 27.4748C65.9411 27.9512 65.8029 28.3838 65.5258 28.7734C65.2487 29.1623 64.8229 29.4273 64.2484 29.5669L66.0566 32.5945H64.6266V32.5953ZM62.0301 28.716H63.3544C63.8029 28.716 64.1411 28.6043 64.3692 28.3793C64.5972 28.1551 64.7112 27.8538 64.7112 27.4748C64.7112 27.0958 64.5987 26.8006 64.3744 26.5862C64.1502 26.3725 63.8104 26.2653 63.3544 26.2653H62.0301V28.7153V28.716Z" fill="#5CB347"/>
<path d="M76.5173 25.2883V32.5953H75.3191V27.5911L73.0903 32.5953H72.2598L70.0204 27.5911V32.5953H68.8215V25.2883H70.1148L72.6803 31.0181L75.2353 25.2883H76.518H76.5173Z" fill="#5CB347"/>
<path d="M83.8446 31.1027H80.7853L80.2598 32.5953H79.0088L81.6264 25.2778H83.0141L85.6317 32.5953H84.3701L83.8446 31.1027ZM83.5079 30.1249L82.3203 26.7289L81.1213 30.1249H83.5079Z" fill="#5CB347"/>
<path d="M88.2132 27.0022C88.5461 26.4344 88.9984 25.9912 89.5692 25.6719C90.1407 25.3532 90.7659 25.1932 91.4461 25.1932C92.2238 25.1932 92.9161 25.3842 93.5224 25.7662C94.1287 26.1483 94.5689 26.6896 94.8422 27.3903H93.4016C93.2121 27.0052 92.9494 26.7175 92.6134 26.528C92.2766 26.3385 91.8878 26.2442 91.4461 26.2442C90.9622 26.2442 90.5318 26.3529 90.1528 26.5703C89.7745 26.7878 89.4778 27.0996 89.2641 27.5058C89.0505 27.912 88.9433 28.3854 88.9433 28.9252C88.9433 29.465 89.0497 29.9384 89.2641 30.3446C89.4778 30.7516 89.7738 31.0649 90.1528 31.2854C90.5311 31.5058 90.9622 31.6168 91.4461 31.6168C91.8878 31.6168 92.2766 31.5224 92.6134 31.3329C92.9501 31.1434 93.2128 30.8565 93.4016 30.4707H94.8422C94.5689 31.1713 94.1287 31.7112 93.5224 32.0902C92.9161 32.4685 92.2238 32.658 91.4461 32.658C90.7591 32.658 90.1317 32.4987 89.5639 32.1793C88.9961 31.8607 88.5454 31.4167 88.2132 30.849C87.8802 30.2812 87.7141 29.6402 87.7141 28.9252C87.7141 28.2102 87.8802 27.5692 88.2132 27.0014V27.0022Z" fill="#5CB347"/>
<path d="M103 25.2883L100.582 29.946V32.5953H99.3835V29.946L96.9547 25.2883H98.2895L99.9822 28.8731L101.675 25.2883H102.999H103Z" fill="#5CB347"/>
</svg>
